<svg width="491" height="161" viewBox="0 0 491 161" fill="none" xmlns="http://www.w3.org/2000/svg">
<circle cx="78" cy="78" r="78" fill="#2196F3"/>
<path d="M86.1364 66C85.9545 63.7273 85.1023 61.9545 83.5795 60.6818C82.0795 59.4091 79.7955 58.7727 76.7273 58.7727C74.7727 58.7727 73.1705 59.0114 71.9205 59.4886C70.6932 59.9432 69.7841 60.5682 69.1932 61.3636C68.6023 62.1591 68.2955 63.0682 68.2727 64.0909C68.2273 64.9318 68.375 65.6932 68.7159 66.375C69.0795 67.0341 69.6477 67.6364 70.4205 68.1818C71.1932 68.7045 72.1818 69.1818 73.3864 69.6136C74.5909 70.0455 76.0227 70.4318 77.6818 70.7727L83.4091 72C87.2727 72.8182 90.5795 73.8977 93.3295 75.2386C96.0795 76.5795 98.3295 78.1591 100.08 79.9773C101.83 81.7727 103.114 83.7955 103.932 86.0455C104.773 88.2955 105.205 90.75 105.227 93.4091C105.205 98 104.057 101.886 101.784 105.068C99.5114 108.25 96.2614 110.67 92.0341 112.33C87.8295 113.989 82.7727 114.818 76.8636 114.818C70.7955 114.818 65.5 113.92 60.9773 112.125C56.4773 110.33 52.9773 107.568 50.4773 103.841C48 100.091 46.75 95.2955 46.7273 89.4545H64.7273C64.8409 91.5909 65.375 93.3864 66.3295 94.8409C67.2841 96.2955 68.625 97.3977 70.3523 98.1477C72.1023 98.8977 74.1818 99.2727 76.5909 99.2727C78.6136 99.2727 80.3068 99.0227 81.6705 98.5227C83.0341 98.0227 84.0682 97.3295 84.7727 96.4432C85.4773 95.5568 85.8409 94.5455 85.8636 93.4091C85.8409 92.3409 85.4886 91.4091 84.8068 90.6136C84.1477 89.7955 83.0568 89.0682 81.5341 88.4318C80.0114 87.7727 77.9545 87.1591 75.3636 86.5909L68.4091 85.0909C62.2273 83.75 57.3523 81.5114 53.7841 78.375C50.2386 75.2159 48.4773 70.9091 48.5 65.4545C48.4773 61.0227 49.6591 57.1477 52.0455 53.8295C54.4545 50.4886 57.7841 47.8864 62.0341 46.0227C66.3068 44.1591 71.2045 43.2273 76.7273 43.2273C82.3636 43.2273 87.2386 44.1705 91.3523 46.0568C95.4659 47.9432 98.6364 50.6023 100.864 54.0341C103.114 57.4432 104.25 61.4318 104.273 66H86.1364Z" fill="white"/>
<path d="M219.136 51C218.955 48.7273 218.102 46.9545 216.58 45.6818C215.08 44.4091 212.795 43.7727 209.727 43.7727C207.773 43.7727 206.17 44.0114 204.92 44.4886C203.693 44.9432 202.784 45.5682 202.193 46.3636C201.602 47.1591 201.295 48.0682 201.273 49.0909C201.227 49.9318 201.375 50.6932 201.716 51.375C202.08 52.0341 202.648 52.6364 203.42 53.1818C204.193 53.7045 205.182 54.1818 206.386 54.6136C207.591 55.0455 209.023 55.4318 210.682 55.7727L216.409 57C220.273 57.8182 223.58 58.8977 226.33 60.2386C229.08 61.5795 231.33 63.1591 233.08 64.9773C234.83 66.7727 236.114 68.7955 236.932 71.0455C237.773 73.2955 238.205 75.75 238.227 78.4091C238.205 83 237.057 86.8864 234.784 90.0682C232.511 93.25 229.261 95.6705 225.034 97.3295C220.83 98.9886 215.773 99.8182 209.864 99.8182C203.795 99.8182 198.5 98.9205 193.977 97.125C189.477 95.3295 185.977 92.5682 183.477 88.8409C181 85.0909 179.75 80.2955 179.727 74.4545H197.727C197.841 76.5909 198.375 78.3864 199.33 79.8409C200.284 81.2955 201.625 82.3977 203.352 83.1477C205.102 83.8977 207.182 84.2727 209.591 84.2727C211.614 84.2727 213.307 84.0227 214.67 83.5227C216.034 83.0227 217.068 82.3295 217.773 81.4432C218.477 80.5568 218.841 79.5455 218.864 78.4091C218.841 77.3409 218.489 76.4091 217.807 75.6136C217.148 74.7955 216.057 74.0682 214.534 73.4318C213.011 72.7727 210.955 72.1591 208.364 71.5909L201.409 70.0909C195.227 68.75 190.352 66.5114 186.784 63.375C183.239 60.2159 181.477 55.9091 181.5 50.4545C181.477 46.0227 182.659 42.1477 185.045 38.8295C187.455 35.4886 190.784 32.8864 195.034 31.0227C199.307 29.1591 204.205 28.2273 209.727 28.2273C215.364 28.2273 220.239 29.1705 224.352 31.0568C228.466 32.9432 231.636 35.6023 233.864 39.0341C236.114 42.4432 237.25 46.4318 237.273 51H219.136ZM245.438 99V29.1818H275.71C281.028 29.1818 285.494 29.8977 289.108 31.3295C292.744 32.7614 295.483 34.7841 297.324 37.3977C299.188 40.0114 300.119 43.0909 300.119 46.6364C300.119 49.2045 299.551 51.5455 298.415 53.6591C297.301 55.7727 295.733 57.5455 293.71 58.9773C291.688 60.3864 289.324 61.3636 286.619 61.9091V62.5909C289.619 62.7045 292.347 63.4659 294.801 64.875C297.256 66.2614 299.21 68.1818 300.665 70.6364C302.119 73.0682 302.847 75.9318 302.847 79.2273C302.847 83.0455 301.847 86.4432 299.847 89.4205C297.869 92.3977 295.051 94.7386 291.392 96.4432C287.733 98.1477 283.369 99 278.301 99H245.438ZM264.392 83.8636H273.256C276.438 83.8636 278.824 83.2727 280.415 82.0909C282.006 80.8864 282.801 79.1136 282.801 76.7727C282.801 75.1364 282.426 73.75 281.676 72.6136C280.926 71.4773 279.858 70.6136 278.472 70.0227C277.108 69.4318 275.46 69.1364 273.528 69.1364H264.392V83.8636ZM264.392 57.4091H272.165C273.824 57.4091 275.29 57.1477 276.562 56.625C277.835 56.1023 278.824 55.3523 279.528 54.375C280.256 53.375 280.619 52.1591 280.619 50.7273C280.619 48.5682 279.847 46.9205 278.301 45.7841C276.756 44.625 274.801 44.0455 272.438 44.0455H264.392V57.4091ZM374.744 55.3636H355.517C355.381 53.7727 355.017 52.3295 354.426 51.0341C353.858 49.7386 353.063 48.625 352.04 47.6932C351.04 46.7386 349.824 46.0114 348.392 45.5114C346.96 44.9886 345.335 44.7273 343.517 44.7273C340.335 44.7273 337.642 45.5 335.438 47.0455C333.256 48.5909 331.597 50.8068 330.46 53.6932C329.347 56.5795 328.79 60.0455 328.79 64.0909C328.79 68.3636 329.358 71.9432 330.494 74.8295C331.653 77.6932 333.324 79.8523 335.506 81.3068C337.688 82.7386 340.313 83.4545 343.381 83.4545C345.131 83.4545 346.699 83.2386 348.085 82.8068C349.472 82.3523 350.676 81.7045 351.699 80.8636C352.722 80.0227 353.551 79.0114 354.188 77.8295C354.847 76.625 355.29 75.2727 355.517 73.7727L374.744 73.9091C374.517 76.8636 373.688 79.875 372.256 82.9432C370.824 85.9886 368.79 88.8068 366.153 91.3977C363.54 93.9659 360.301 96.0341 356.438 97.6023C352.574 99.1705 348.085 99.9545 342.972 99.9545C336.562 99.9545 330.812 98.5795 325.722 95.8295C320.653 93.0795 316.642 89.0341 313.688 83.6932C310.756 78.3523 309.29 71.8182 309.29 64.0909C309.29 56.3182 310.79 49.7727 313.79 44.4545C316.79 39.1136 320.835 35.0795 325.926 32.3523C331.017 29.6023 336.699 28.2273 342.972 28.2273C347.381 28.2273 351.438 28.8295 355.142 30.0341C358.847 31.2386 362.097 33 364.892 35.3182C367.688 37.6136 369.938 40.4432 371.642 43.8068C373.347 47.1705 374.381 51.0227 374.744 55.3636ZM402.298 29.1818V99H383.344V29.1818H402.298Z" fill="#024173"/>
<path d="M189.462 117.5C189.429 117.098 189.279 116.784 189.009 116.558C188.743 116.333 188.339 116.22 187.795 116.22C187.449 116.22 187.166 116.262 186.944 116.347C186.727 116.427 186.566 116.538 186.461 116.679C186.357 116.82 186.302 116.981 186.298 117.162C186.29 117.311 186.316 117.446 186.377 117.566C186.441 117.683 186.542 117.79 186.679 117.886C186.815 117.979 186.991 118.063 187.204 118.14C187.417 118.216 187.671 118.285 187.964 118.345L188.979 118.562C189.663 118.707 190.248 118.899 190.735 119.136C191.222 119.373 191.621 119.653 191.931 119.975C192.241 120.293 192.468 120.651 192.613 121.05C192.762 121.448 192.838 121.883 192.842 122.354C192.838 123.167 192.635 123.855 192.233 124.418C191.83 124.982 191.255 125.41 190.506 125.704C189.761 125.998 188.866 126.145 187.82 126.145C186.745 126.145 185.807 125.986 185.006 125.668C184.21 125.35 183.59 124.861 183.147 124.201C182.708 123.537 182.487 122.688 182.483 121.653H185.67C185.691 122.032 185.785 122.35 185.954 122.607C186.123 122.865 186.361 123.06 186.667 123.193C186.976 123.326 187.345 123.392 187.771 123.392C188.129 123.392 188.429 123.348 188.671 123.259C188.912 123.171 189.095 123.048 189.22 122.891C189.345 122.734 189.409 122.555 189.413 122.354C189.409 122.165 189.347 122 189.226 121.859C189.109 121.714 188.916 121.585 188.647 121.472C188.377 121.356 188.013 121.247 187.554 121.146L186.322 120.881C185.228 120.643 184.364 120.247 183.733 119.691C183.105 119.132 182.793 118.369 182.797 117.403C182.793 116.619 183.002 115.932 183.425 115.345C183.851 114.753 184.441 114.292 185.194 113.962C185.95 113.632 186.817 113.467 187.795 113.467C188.794 113.467 189.657 113.634 190.385 113.968C191.114 114.302 191.675 114.773 192.07 115.381C192.468 115.985 192.669 116.691 192.673 117.5H189.462ZM197.162 123.803L197.186 119.842H197.621L199.866 116.727H203.609L199.842 121.581H198.9L197.162 123.803ZM194.167 126V113.636H197.5V126H194.167ZM199.89 126L197.765 122.33L199.939 119.963L203.706 126H199.89ZM204.477 126V116.727H207.809V126H204.477ZM206.143 115.761C205.692 115.761 205.306 115.612 204.984 115.315C204.662 115.017 204.501 114.659 204.501 114.24C204.501 113.821 204.662 113.463 204.984 113.165C205.306 112.868 205.692 112.719 206.143 112.719C206.598 112.719 206.984 112.868 207.302 113.165C207.624 113.463 207.785 113.821 207.785 114.24C207.785 114.659 207.624 115.017 207.302 115.315C206.984 115.612 206.598 115.761 206.143 115.761ZM212.84 113.636V126H209.507V113.636H212.84ZM217.87 113.636V126H214.538V113.636H217.87ZM222.906 126V113.636H226.239V118.345H226.287C226.408 118.031 226.585 117.743 226.818 117.482C227.052 117.216 227.341 117.005 227.688 116.848C228.034 116.687 228.436 116.607 228.895 116.607C229.507 116.607 230.088 116.77 230.64 117.096C231.195 117.422 231.646 117.935 231.992 118.635C232.342 119.335 232.517 120.245 232.517 121.364C232.517 122.434 232.35 123.322 232.016 124.026C231.686 124.73 231.243 125.255 230.688 125.602C230.136 125.948 229.531 126.121 228.871 126.121C228.436 126.121 228.048 126.05 227.706 125.909C227.368 125.765 227.078 125.569 226.836 125.324C226.599 125.074 226.416 124.793 226.287 124.479H226.214V126H222.906ZM226.166 121.364C226.166 121.814 226.225 122.205 226.341 122.535C226.462 122.861 226.631 123.114 226.848 123.295C227.07 123.473 227.333 123.561 227.639 123.561C227.945 123.561 228.205 123.475 228.418 123.301C228.635 123.124 228.8 122.873 228.913 122.547C229.03 122.217 229.088 121.822 229.088 121.364C229.088 120.905 229.03 120.512 228.913 120.186C228.8 119.856 228.635 119.605 228.418 119.432C228.205 119.255 227.945 119.166 227.639 119.166C227.333 119.166 227.07 119.255 226.848 119.432C226.631 119.605 226.462 119.856 226.341 120.186C226.225 120.512 226.166 120.905 226.166 121.364ZM238.379 126.169C237.373 126.169 236.511 125.97 235.795 125.571C235.079 125.169 234.529 124.609 234.147 123.893C233.765 123.173 233.574 122.338 233.574 121.388C233.574 120.438 233.765 119.605 234.147 118.888C234.529 118.168 235.079 117.609 235.795 117.21C236.511 116.808 237.373 116.607 238.379 116.607C239.385 116.607 240.246 116.808 240.963 117.21C241.679 117.609 242.228 118.168 242.611 118.888C242.993 119.605 243.184 120.438 243.184 121.388C243.184 122.338 242.993 123.173 242.611 123.893C242.228 124.609 241.679 125.169 240.963 125.571C240.246 125.97 239.385 126.169 238.379 126.169ZM238.403 123.706C238.685 123.706 238.928 123.611 239.134 123.422C239.339 123.233 239.498 122.963 239.61 122.613C239.723 122.263 239.779 121.847 239.779 121.364C239.779 120.877 239.723 120.46 239.61 120.114C239.498 119.764 239.339 119.494 239.134 119.305C238.928 119.116 238.685 119.021 238.403 119.021C238.105 119.021 237.85 119.116 237.636 119.305C237.423 119.494 237.26 119.764 237.147 120.114C237.035 120.46 236.978 120.877 236.978 121.364C236.978 121.847 237.035 122.263 237.147 122.613C237.26 122.963 237.423 123.233 237.636 123.422C237.85 123.611 238.105 123.706 238.403 123.706ZM249.004 126.169C247.998 126.169 247.136 125.97 246.42 125.571C245.704 125.169 245.154 124.609 244.772 123.893C244.39 123.173 244.199 122.338 244.199 121.388C244.199 120.438 244.39 119.605 244.772 118.888C245.154 118.168 245.704 117.609 246.42 117.21C247.136 116.808 247.998 116.607 249.004 116.607C250.01 116.607 250.871 116.808 251.588 117.21C252.304 117.609 252.853 118.168 253.236 118.888C253.618 119.605 253.809 120.438 253.809 121.388C253.809 122.338 253.618 123.173 253.236 123.893C252.853 124.609 252.304 125.169 251.588 125.571C250.871 125.97 250.01 126.169 249.004 126.169ZM249.028 123.706C249.31 123.706 249.553 123.611 249.759 123.422C249.964 123.233 250.123 122.963 250.235 122.613C250.348 122.263 250.404 121.847 250.404 121.364C250.404 120.877 250.348 120.46 250.235 120.114C250.123 119.764 249.964 119.494 249.759 119.305C249.553 119.116 249.31 119.021 249.028 119.021C248.73 119.021 248.475 119.116 248.261 119.305C248.048 119.494 247.885 119.764 247.772 120.114C247.66 120.46 247.603 120.877 247.603 121.364C247.603 121.847 247.66 122.263 247.772 122.613C247.885 122.963 248.048 123.233 248.261 123.422C248.475 123.611 248.73 123.706 249.028 123.706ZM263.637 119.746H260.571C260.555 119.557 260.488 119.394 260.371 119.257C260.255 119.12 260.104 119.015 259.919 118.943C259.738 118.866 259.536 118.828 259.315 118.828C259.029 118.828 258.784 118.88 258.578 118.985C258.373 119.09 258.273 119.239 258.277 119.432C258.273 119.569 258.331 119.695 258.452 119.812C258.576 119.929 258.816 120.019 259.17 120.084L261.054 120.422C262.003 120.595 262.71 120.887 263.173 121.297C263.639 121.704 263.875 122.249 263.879 122.933C263.875 123.593 263.678 124.167 263.287 124.654C262.901 125.137 262.372 125.511 261.7 125.777C261.031 126.038 260.269 126.169 259.412 126.169C257.995 126.169 256.886 125.879 256.085 125.3C255.288 124.72 254.844 123.955 254.751 123.006H258.059C258.104 123.299 258.248 123.527 258.494 123.688C258.743 123.845 259.057 123.923 259.436 123.923C259.742 123.923 259.993 123.871 260.19 123.766C260.392 123.662 260.494 123.513 260.498 123.32C260.494 123.143 260.406 123.002 260.233 122.897C260.064 122.792 259.798 122.708 259.436 122.643L257.794 122.354C256.848 122.189 256.14 121.875 255.669 121.412C255.198 120.949 254.964 120.353 254.968 119.625C254.964 118.981 255.133 118.436 255.475 117.989C255.822 117.538 256.315 117.196 256.955 116.963C257.598 116.725 258.361 116.607 259.243 116.607C260.583 116.607 261.639 116.884 262.412 117.44C263.189 117.995 263.597 118.764 263.637 119.746ZM270.686 116.727V119.142H264.576V116.727H270.686ZM265.759 114.506H269.092V123.018C269.092 123.147 269.114 123.255 269.158 123.344C269.202 123.428 269.271 123.493 269.363 123.537C269.456 123.577 269.575 123.597 269.72 123.597C269.82 123.597 269.937 123.585 270.07 123.561C270.207 123.537 270.307 123.517 270.372 123.501L270.855 125.843C270.706 125.887 270.492 125.942 270.215 126.006C269.941 126.07 269.615 126.113 269.237 126.133C268.472 126.173 267.83 126.095 267.311 125.897C266.792 125.696 266.401 125.38 266.14 124.95C265.878 124.519 265.751 123.98 265.759 123.332V114.506ZM279.899 126.169C278.893 126.169 278.032 125.97 277.316 125.571C276.599 125.169 276.05 124.609 275.668 123.893C275.285 123.173 275.094 122.338 275.094 121.388C275.094 120.438 275.285 119.605 275.668 118.888C276.05 118.168 276.599 117.609 277.316 117.21C278.032 116.808 278.893 116.607 279.899 116.607C280.809 116.607 281.596 116.772 282.26 117.102C282.928 117.428 283.445 117.89 283.811 118.49C284.178 119.086 284.363 119.786 284.367 120.591H281.276C281.232 120.104 281.091 119.734 280.853 119.48C280.62 119.223 280.318 119.094 279.948 119.094C279.658 119.094 279.404 119.178 279.187 119.347C278.97 119.512 278.801 119.764 278.68 120.102C278.559 120.436 278.499 120.857 278.499 121.364C278.499 121.871 278.559 122.293 278.68 122.631C278.801 122.965 278.97 123.217 279.187 123.386C279.404 123.551 279.658 123.634 279.948 123.634C280.193 123.634 280.411 123.577 280.6 123.464C280.789 123.348 280.942 123.179 281.059 122.957C281.179 122.732 281.252 122.458 281.276 122.136H284.367C284.355 122.953 284.168 123.666 283.805 124.273C283.443 124.877 282.93 125.344 282.266 125.674C281.606 126.004 280.817 126.169 279.899 126.169ZM290.209 126.169C289.203 126.169 288.342 125.97 287.625 125.571C286.909 125.169 286.359 124.609 285.977 123.893C285.595 123.173 285.404 122.338 285.404 121.388C285.404 120.438 285.595 119.605 285.977 118.888C286.359 118.168 286.909 117.609 287.625 117.21C288.342 116.808 289.203 116.607 290.209 116.607C291.215 116.607 292.076 116.808 292.793 117.21C293.509 117.609 294.059 118.168 294.441 118.888C294.823 119.605 295.014 120.438 295.014 121.388C295.014 122.338 294.823 123.173 294.441 123.893C294.059 124.609 293.509 125.169 292.793 125.571C292.076 125.97 291.215 126.169 290.209 126.169ZM290.233 123.706C290.515 123.706 290.758 123.611 290.964 123.422C291.169 123.233 291.328 122.963 291.441 122.613C291.553 122.263 291.61 121.847 291.61 121.364C291.61 120.877 291.553 120.46 291.441 120.114C291.328 119.764 291.169 119.494 290.964 119.305C290.758 119.116 290.515 119.021 290.233 119.021C289.935 119.021 289.68 119.116 289.466 119.305C289.253 119.494 289.09 119.764 288.977 120.114C288.865 120.46 288.808 120.877 288.808 121.364C288.808 121.847 288.865 122.263 288.977 122.613C289.09 122.963 289.253 123.233 289.466 123.422C289.68 123.611 289.935 123.706 290.233 123.706ZM296.367 126V116.727H299.53V118.49H299.627C299.82 117.911 300.15 117.452 300.617 117.114C301.084 116.776 301.639 116.607 302.283 116.607C302.935 116.607 303.496 116.78 303.967 117.126C304.438 117.468 304.722 117.923 304.818 118.49H304.915C305.072 117.923 305.406 117.468 305.917 117.126C306.428 116.78 307.028 116.607 307.716 116.607C308.606 116.607 309.326 116.892 309.877 117.464C310.433 118.035 310.71 118.796 310.71 119.746V126H307.378V120.591C307.378 120.184 307.275 119.866 307.07 119.637C306.865 119.404 306.589 119.287 306.243 119.287C305.901 119.287 305.629 119.404 305.428 119.637C305.231 119.866 305.132 120.184 305.132 120.591V126H301.945V120.591C301.945 120.184 301.842 119.866 301.637 119.637C301.432 119.404 301.156 119.287 300.81 119.287C300.58 119.287 300.383 119.339 300.218 119.444C300.053 119.549 299.924 119.699 299.832 119.897C299.743 120.09 299.699 120.321 299.699 120.591V126H296.367ZM312.354 129.477V116.727H315.662V118.345H315.735C315.855 118.031 316.032 117.743 316.266 117.482C316.499 117.216 316.789 117.005 317.135 116.848C317.481 116.687 317.884 116.607 318.343 116.607C318.954 116.607 319.536 116.77 320.087 117.096C320.643 117.422 321.093 117.935 321.44 118.635C321.79 119.335 321.965 120.245 321.965 121.364C321.965 122.434 321.798 123.322 321.464 124.026C321.134 124.73 320.691 125.255 320.136 125.602C319.584 125.948 318.978 126.121 318.318 126.121C317.884 126.121 317.495 126.05 317.153 125.909C316.815 125.765 316.525 125.569 316.284 125.324C316.047 125.074 315.863 124.793 315.735 124.479H315.686V129.477H312.354ZM315.614 121.364C315.614 121.814 315.672 122.205 315.789 122.535C315.91 122.861 316.079 123.114 316.296 123.295C316.517 123.473 316.781 123.561 317.087 123.561C317.393 123.561 317.652 123.475 317.866 123.301C318.083 123.124 318.248 122.873 318.361 122.547C318.477 122.217 318.536 121.822 318.536 121.364C318.536 120.905 318.477 120.512 318.361 120.186C318.248 119.856 318.083 119.605 317.866 119.432C317.652 119.255 317.393 119.166 317.087 119.166C316.781 119.166 316.517 119.255 316.296 119.432C316.079 119.605 315.91 119.856 315.789 120.186C315.672 120.512 315.614 120.905 315.614 121.364ZM329.374 121.943V116.727H332.706V126H329.543V124.237H329.446C329.245 124.829 328.893 125.292 328.39 125.626C327.886 125.956 327.289 126.121 326.597 126.121C325.949 126.121 325.381 125.972 324.894 125.674C324.411 125.376 324.035 124.966 323.765 124.442C323.5 123.919 323.365 123.32 323.361 122.643V116.727H326.693V121.943C326.697 122.402 326.814 122.762 327.043 123.024C327.277 123.285 327.603 123.416 328.021 123.416C328.299 123.416 328.538 123.358 328.74 123.241C328.945 123.12 329.102 122.951 329.211 122.734C329.323 122.513 329.378 122.249 329.374 121.943ZM339.931 116.727V119.142H333.821V116.727H339.931ZM335.005 114.506H338.337V123.018C338.337 123.147 338.359 123.255 338.403 123.344C338.448 123.428 338.516 123.493 338.609 123.537C338.701 123.577 338.82 123.597 338.965 123.597C339.065 123.597 339.182 123.585 339.315 123.561C339.452 123.537 339.552 123.517 339.617 123.501L340.1 125.843C339.951 125.887 339.737 125.942 339.46 126.006C339.186 126.07 338.86 126.113 338.482 126.133C337.717 126.173 337.075 126.095 336.556 125.897C336.037 125.696 335.646 125.38 335.385 124.95C335.123 124.519 334.996 123.98 335.005 123.332V114.506ZM345.634 126.169C344.644 126.169 343.791 125.98 343.074 125.602C342.362 125.219 341.813 124.672 341.426 123.96C341.044 123.243 340.853 122.386 340.853 121.388C340.853 120.43 341.046 119.593 341.432 118.876C341.819 118.16 342.364 117.603 343.068 117.204C343.773 116.806 344.604 116.607 345.562 116.607C346.262 116.607 346.896 116.715 347.463 116.933C348.031 117.15 348.516 117.466 348.918 117.88C349.321 118.291 349.631 118.79 349.848 119.377C350.065 119.965 350.174 120.627 350.174 121.364V122.136H341.891V120.301H347.107C347.103 120.036 347.035 119.802 346.902 119.601C346.773 119.396 346.598 119.237 346.377 119.124C346.159 119.007 345.912 118.949 345.634 118.949C345.364 118.949 345.117 119.007 344.892 119.124C344.666 119.237 344.485 119.394 344.348 119.595C344.215 119.796 344.145 120.031 344.137 120.301V122.281C344.137 122.579 344.199 122.845 344.324 123.078C344.449 123.312 344.628 123.495 344.861 123.627C345.095 123.76 345.376 123.827 345.706 123.827C345.936 123.827 346.145 123.795 346.334 123.73C346.528 123.666 346.693 123.573 346.829 123.452C346.966 123.328 347.067 123.179 347.131 123.006H350.174C350.069 123.65 349.822 124.209 349.431 124.684C349.041 125.155 348.524 125.521 347.88 125.783C347.24 126.04 346.491 126.169 345.634 126.169ZM351.534 126V116.727H354.769V118.49H354.866C355.035 117.838 355.303 117.361 355.669 117.059C356.039 116.757 356.472 116.607 356.967 116.607C357.112 116.607 357.255 116.619 357.396 116.643C357.54 116.663 357.679 116.693 357.812 116.733V119.577C357.647 119.52 357.444 119.478 357.202 119.45C356.961 119.422 356.754 119.408 356.581 119.408C356.255 119.408 355.961 119.482 355.699 119.631C355.442 119.776 355.238 119.981 355.089 120.247C354.94 120.508 354.866 120.816 354.866 121.17V126H351.534ZM362.291 126V116.727H365.624V126H362.291ZM363.958 115.761C363.507 115.761 363.121 115.612 362.799 115.315C362.477 115.017 362.316 114.659 362.316 114.24C362.316 113.821 362.477 113.463 362.799 113.165C363.121 112.868 363.507 112.719 363.958 112.719C364.412 112.719 364.799 112.868 365.117 113.165C365.439 113.463 365.6 113.821 365.6 114.24C365.6 114.659 365.439 115.017 365.117 115.315C364.799 115.612 364.412 115.761 363.958 115.761ZM370.654 120.784V126H367.322V116.727H370.485V118.49H370.582C370.783 117.902 371.137 117.442 371.644 117.108C372.155 116.774 372.751 116.607 373.431 116.607C374.087 116.607 374.657 116.757 375.14 117.059C375.627 117.357 376.003 117.768 376.268 118.291C376.538 118.814 376.671 119.412 376.667 120.084V126H373.335V120.784C373.339 120.325 373.222 119.965 372.984 119.703C372.751 119.442 372.425 119.311 372.006 119.311C371.733 119.311 371.493 119.371 371.288 119.492C371.087 119.609 370.932 119.778 370.823 119.999C370.714 120.217 370.658 120.478 370.654 120.784ZM386.788 119.746H383.721C383.705 119.557 383.639 119.394 383.522 119.257C383.405 119.12 383.254 119.015 383.069 118.943C382.888 118.866 382.687 118.828 382.465 118.828C382.18 118.828 381.934 118.88 381.729 118.985C381.524 119.09 381.423 119.239 381.427 119.432C381.423 119.569 381.481 119.695 381.602 119.812C381.727 119.929 381.966 120.019 382.32 120.084L384.204 120.422C385.154 120.595 385.86 120.887 386.323 121.297C386.79 121.704 387.025 122.249 387.029 122.933C387.025 123.593 386.828 124.167 386.438 124.654C386.051 125.137 385.522 125.511 384.85 125.777C384.182 126.038 383.419 126.169 382.562 126.169C381.145 126.169 380.037 125.879 379.236 125.3C378.439 124.72 377.994 123.955 377.901 123.006H381.21C381.254 123.299 381.399 123.527 381.644 123.688C381.894 123.845 382.208 123.923 382.586 123.923C382.892 123.923 383.144 123.871 383.341 123.766C383.542 123.662 383.645 123.513 383.649 123.32C383.645 123.143 383.556 123.002 383.383 122.897C383.214 122.792 382.948 122.708 382.586 122.643L380.944 122.354C379.998 122.189 379.29 121.875 378.819 121.412C378.348 120.949 378.115 120.353 378.119 119.625C378.115 118.981 378.284 118.436 378.626 117.989C378.972 117.538 379.465 117.196 380.105 116.963C380.749 116.725 381.512 116.607 382.393 116.607C383.733 116.607 384.79 116.884 385.562 117.44C386.339 117.995 386.748 118.764 386.788 119.746ZM393.836 116.727V119.142H387.727V116.727H393.836ZM388.91 114.506H392.242V123.018C392.242 123.147 392.264 123.255 392.309 123.344C392.353 123.428 392.421 123.493 392.514 123.537C392.606 123.577 392.725 123.597 392.87 123.597C392.971 123.597 393.087 123.585 393.22 123.561C393.357 123.537 393.458 123.517 393.522 123.501L394.005 125.843C393.856 125.887 393.643 125.942 393.365 126.006C393.091 126.07 392.765 126.113 392.387 126.133C391.622 126.173 390.98 126.095 390.461 125.897C389.942 125.696 389.552 125.38 389.29 124.95C389.029 124.519 388.902 123.98 388.91 123.332V114.506ZM395.196 126V116.727H398.528V126H395.196ZM396.862 115.761C396.411 115.761 396.025 115.612 395.703 115.315C395.381 115.017 395.22 114.659 395.22 114.24C395.22 113.821 395.381 113.463 395.703 113.165C396.025 112.868 396.411 112.719 396.862 112.719C397.317 112.719 397.703 112.868 398.021 113.165C398.343 113.463 398.504 113.821 398.504 114.24C398.504 114.659 398.343 115.017 398.021 115.315C397.703 115.612 397.317 115.761 396.862 115.761ZM405.756 116.727V119.142H399.646V116.727H405.756ZM400.83 114.506H404.162V123.018C404.162 123.147 404.184 123.255 404.229 123.344C404.273 123.428 404.341 123.493 404.434 123.537C404.526 123.577 404.645 123.597 404.79 123.597C404.891 123.597 405.007 123.585 405.14 123.561C405.277 123.537 405.378 123.517 405.442 123.501L405.925 125.843C405.776 125.887 405.563 125.942 405.285 126.006C405.011 126.07 404.685 126.113 404.307 126.133C403.542 126.173 402.9 126.095 402.381 125.897C401.862 125.696 401.472 125.38 401.21 124.95C400.948 124.519 400.822 123.98 400.83 123.332V114.506ZM413.128 121.943V116.727H416.461V126H413.297V124.237H413.201C413 124.829 412.648 125.292 412.144 125.626C411.641 125.956 411.044 126.121 410.351 126.121C409.704 126.121 409.136 125.972 408.649 125.674C408.166 125.376 407.79 124.966 407.52 124.442C407.255 123.919 407.12 123.32 407.116 122.643V116.727H410.448V121.943C410.452 122.402 410.569 122.762 410.798 123.024C411.032 123.285 411.358 123.416 411.776 123.416C412.054 123.416 412.293 123.358 412.495 123.241C412.7 123.12 412.857 122.951 412.965 122.734C413.078 122.513 413.132 122.249 413.128 121.943ZM423.686 116.727V119.142H417.576V116.727H423.686ZM418.759 114.506H422.092V123.018C422.092 123.147 422.114 123.255 422.158 123.344C422.202 123.428 422.271 123.493 422.363 123.537C422.456 123.577 422.575 123.597 422.72 123.597C422.82 123.597 422.937 123.585 423.07 123.561C423.207 123.537 423.307 123.517 423.372 123.501L423.855 125.843C423.706 125.887 423.492 125.942 423.215 126.006C422.941 126.07 422.615 126.113 422.237 126.133C421.472 126.173 420.83 126.095 420.311 125.897C419.792 125.696 419.401 125.38 419.14 124.95C418.878 124.519 418.751 123.98 418.759 123.332V114.506ZM429.389 126.169C428.399 126.169 427.546 125.98 426.829 125.602C426.117 125.219 425.568 124.672 425.181 123.96C424.799 123.243 424.608 122.386 424.608 121.388C424.608 120.43 424.801 119.593 425.187 118.876C425.574 118.16 426.119 117.603 426.823 117.204C427.528 116.806 428.359 116.607 429.316 116.607C430.017 116.607 430.651 116.715 431.218 116.933C431.786 117.15 432.271 117.466 432.673 117.88C433.075 118.291 433.385 118.79 433.603 119.377C433.82 119.965 433.929 120.627 433.929 121.364V122.136H425.646V120.301H430.862C430.858 120.036 430.79 119.802 430.657 119.601C430.528 119.396 430.353 119.237 430.131 119.124C429.914 119.007 429.667 118.949 429.389 118.949C429.119 118.949 428.872 119.007 428.646 119.124C428.421 119.237 428.24 119.394 428.103 119.595C427.97 119.796 427.9 120.031 427.892 120.301V122.281C427.892 122.579 427.954 122.845 428.079 123.078C428.204 123.312 428.383 123.495 428.616 123.627C428.85 123.76 429.131 123.827 429.461 123.827C429.691 123.827 429.9 123.795 430.089 123.73C430.282 123.666 430.447 123.573 430.584 123.452C430.721 123.328 430.822 123.179 430.886 123.006H433.929C433.824 123.65 433.577 124.209 433.186 124.684C432.796 125.155 432.279 125.521 431.635 125.783C430.995 126.04 430.246 126.169 429.389 126.169Z" fill="black"/>
</svg>
