<svg width="1024" height="1024" viewBox="0 0 1024 1024" fill="none" xmlns="http://www.w3.org/2000/svg">
<rect width="1024" height="1024" fill="#2196F3"/>
<path d="M582.352 425C581.216 410.795 575.889 399.716 566.372 391.761C556.997 383.807 542.722 379.83 523.545 379.83C511.33 379.83 501.315 381.321 493.503 384.304C485.832 387.145 480.151 391.051 476.457 396.023C472.764 400.994 470.847 406.676 470.705 413.068C470.42 418.324 471.344 423.082 473.474 427.344C475.747 431.463 479.298 435.227 484.128 438.636C488.957 441.903 495.136 444.886 502.665 447.585C510.193 450.284 519.142 452.699 529.511 454.83L565.307 462.5C589.455 467.614 610.122 474.361 627.31 482.741C644.497 491.122 658.56 500.994 669.497 512.358C680.435 523.58 688.46 536.222 693.574 550.284C698.83 564.347 701.528 579.687 701.67 596.307C701.528 625 694.355 649.29 680.151 669.176C665.946 689.062 645.634 704.19 619.213 714.56C592.935 724.929 561.33 730.114 524.398 730.114C486.472 730.114 453.375 724.503 425.108 713.281C396.983 702.06 375.108 684.801 359.483 661.506C344 638.068 336.188 608.097 336.045 571.591H448.545C449.256 584.943 452.594 596.165 458.56 605.256C464.526 614.347 472.906 621.236 483.702 625.923C494.639 630.611 507.636 632.955 522.693 632.955C535.335 632.955 545.918 631.392 554.44 628.267C562.963 625.142 569.426 620.81 573.83 615.27C578.233 609.73 580.506 603.409 580.648 596.307C580.506 589.631 578.304 583.807 574.043 578.835C569.923 573.722 563.105 569.176 553.588 565.199C544.071 561.08 531.216 557.244 515.023 553.693L471.557 544.318C432.92 535.937 402.452 521.946 380.151 502.344C357.991 482.599 346.983 455.682 347.125 421.591C346.983 393.892 354.369 369.673 369.284 348.935C384.341 328.054 405.151 311.79 431.713 300.142C458.418 288.494 489.028 282.67 523.545 282.67C558.773 282.67 589.241 288.565 614.952 300.355C640.662 312.145 660.477 328.764 674.398 350.213C688.46 371.52 695.563 396.449 695.705 425H582.352Z" fill="white"/>
<rect x="412" y="144" width="226" height="201" fill="#2196F3"/>
</svg>
